<mxfile host="app.diagrams.net" modified="2021-09-13T02:27:20.129Z" agent="5.0 (Windows)" etag="yxVLyyJHuI4tVGVMI6zX" version="15.0.6" type="github">
  <diagram id="fqCkSu9vm9ViEe0apabM" name="Page-1">
    <mxGraphModel dx="1185" dy="627" grid="1" gridSize="10" guides="1" tooltips="1" connect="1" arrows="1" fold="1" page="1" pageScale="1" pageWidth="850" pageHeight="1100" math="0" shadow="0">
      <root>
        <mxCell id="0" />
        <mxCell id="1" parent="0" />
        <mxCell id="0rzklVT4OKaPTHBkq0-C-35" value="" style="group;movable=0;" parent="1" vertex="1" connectable="0">
          <mxGeometry x="350" y="100" width="410" height="800" as="geometry" />
        </mxCell>
        <mxCell id="0rzklVT4OKaPTHBkq0-C-66" value="" style="group;movable=0;" parent="0rzklVT4OKaPTHBkq0-C-35" vertex="1" connectable="0">
          <mxGeometry x="-150" y="-100" width="560" height="900" as="geometry" />
        </mxCell>
        <mxCell id="0rzklVT4OKaPTHBkq0-C-1" value="" style="rounded=0;whiteSpace=wrap;html=1;expand=0;editable=0;" parent="0rzklVT4OKaPTHBkq0-C-66" vertex="1">
          <mxGeometry width="560" height="900" as="geometry" />
        </mxCell>
        <mxCell id="0rzklVT4OKaPTHBkq0-C-65" value="Good Time Journal App" style="text;html=1;strokeColor=none;fillColor=none;align=center;verticalAlign=middle;whiteSpace=wrap;rounded=0;" parent="0rzklVT4OKaPTHBkq0-C-66" vertex="1">
          <mxGeometry x="130" width="140" height="22.5" as="geometry" />
        </mxCell>
        <mxCell id="0rzklVT4OKaPTHBkq0-C-53" value="&amp;lt;&amp;lt;includes&amp;gt;&amp;gt;" style="endArrow=none;html=1;strokeWidth=2;startArrow=classic;startFill=1;entryX=1;entryY=0.5;entryDx=0;entryDy=0;exitX=0;exitY=0.5;exitDx=0;exitDy=0;dashed=1;dashPattern=1 1;" parent="0rzklVT4OKaPTHBkq0-C-66" source="-kTuXStXJfN16XEMPzo_-22" target="0rzklVT4OKaPTHBkq0-C-42" edge="1">
          <mxGeometry x="-0.0971" y="-9" width="50" height="50" relative="1" as="geometry">
            <mxPoint x="290" y="326.2499999999999" as="sourcePoint" />
            <mxPoint x="370" y="337.5" as="targetPoint" />
            <Array as="points" />
            <mxPoint as="offset" />
          </mxGeometry>
        </mxCell>
        <mxCell id="0rzklVT4OKaPTHBkq0-C-89" value="&amp;lt;&amp;lt;extends&amp;gt;&amp;gt;" style="endArrow=none;html=1;strokeWidth=2;startArrow=classic;startFill=1;dashed=1;dashPattern=1 1;entryX=1;entryY=0.5;entryDx=0;entryDy=0;exitX=0;exitY=0.5;exitDx=0;exitDy=0;" parent="0rzklVT4OKaPTHBkq0-C-66" source="0rzklVT4OKaPTHBkq0-C-58" target="0rzklVT4OKaPTHBkq0-C-75" edge="1">
          <mxGeometry x="-0.0275" y="-14" width="50" height="50" relative="1" as="geometry">
            <mxPoint x="520" y="480" as="sourcePoint" />
            <mxPoint x="230" y="381.09375" as="targetPoint" />
            <Array as="points" />
            <mxPoint as="offset" />
          </mxGeometry>
        </mxCell>
        <mxCell id="-kTuXStXJfN16XEMPzo_-2" value="Manage Account" style="ellipse;whiteSpace=wrap;html=1;" parent="0rzklVT4OKaPTHBkq0-C-66" vertex="1">
          <mxGeometry x="116.25" y="498" width="80" height="67.5" as="geometry" />
        </mxCell>
        <mxCell id="0rzklVT4OKaPTHBkq0-C-38" value="" style="group" parent="0rzklVT4OKaPTHBkq0-C-66" vertex="1" connectable="0">
          <mxGeometry x="120" y="180" width="70" height="67.5" as="geometry" />
        </mxCell>
        <mxCell id="0rzklVT4OKaPTHBkq0-C-39" value="" style="ellipse;whiteSpace=wrap;html=1;" parent="0rzklVT4OKaPTHBkq0-C-38" vertex="1">
          <mxGeometry width="70" height="67.5" as="geometry" />
        </mxCell>
        <mxCell id="0rzklVT4OKaPTHBkq0-C-40" value="&lt;div&gt;Login&lt;/div&gt;" style="text;html=1;strokeColor=none;fillColor=none;align=center;verticalAlign=middle;whiteSpace=wrap;rounded=0;" parent="0rzklVT4OKaPTHBkq0-C-38" vertex="1">
          <mxGeometry x="23.333333333333332" y="25.3125" width="23.333333333333332" height="16.875" as="geometry" />
        </mxCell>
        <mxCell id="0rzklVT4OKaPTHBkq0-C-67" value="" style="group" parent="0rzklVT4OKaPTHBkq0-C-66" vertex="1" connectable="0">
          <mxGeometry x="120" y="112.5" width="70" height="67.5" as="geometry" />
        </mxCell>
        <mxCell id="0rzklVT4OKaPTHBkq0-C-68" value="" style="ellipse;whiteSpace=wrap;html=1;" parent="0rzklVT4OKaPTHBkq0-C-67" vertex="1">
          <mxGeometry width="70" height="67.5" as="geometry" />
        </mxCell>
        <mxCell id="0rzklVT4OKaPTHBkq0-C-69" value="Create Account" style="text;html=1;strokeColor=none;fillColor=none;align=center;verticalAlign=middle;whiteSpace=wrap;rounded=0;" parent="0rzklVT4OKaPTHBkq0-C-67" vertex="1">
          <mxGeometry x="23.333333333333332" y="25.3125" width="23.333333333333332" height="16.875" as="geometry" />
        </mxCell>
        <mxCell id="-kTuXStXJfN16XEMPzo_-14" value="Search" style="ellipse;whiteSpace=wrap;html=1;" parent="0rzklVT4OKaPTHBkq0-C-66" vertex="1">
          <mxGeometry x="120" y="69.5" width="70" height="43" as="geometry" />
        </mxCell>
        <mxCell id="-kTuXStXJfN16XEMPzo_-15" value="View Calendar" style="ellipse;whiteSpace=wrap;html=1;" parent="0rzklVT4OKaPTHBkq0-C-66" vertex="1">
          <mxGeometry x="112.5" y="30" width="87.5" height="39.5" as="geometry" />
        </mxCell>
        <mxCell id="-kTuXStXJfN16XEMPzo_-16" value="Manage Calendar" style="ellipse;whiteSpace=wrap;html=1;" parent="0rzklVT4OKaPTHBkq0-C-66" vertex="1">
          <mxGeometry x="292.5" y="26.5" width="100" height="43" as="geometry" />
        </mxCell>
        <mxCell id="0rzklVT4OKaPTHBkq0-C-58" value="View Group Posts" style="ellipse;whiteSpace=wrap;html=1;" parent="0rzklVT4OKaPTHBkq0-C-66" vertex="1">
          <mxGeometry x="307.5" y="430.5" width="70" height="67.5" as="geometry" />
        </mxCell>
        <mxCell id="-kTuXStXJfN16XEMPzo_-21" value="View Posts" style="ellipse;whiteSpace=wrap;html=1;" parent="0rzklVT4OKaPTHBkq0-C-66" vertex="1">
          <mxGeometry x="119.25" y="247.5" width="74" height="48" as="geometry" />
        </mxCell>
        <mxCell id="-kTuXStXJfN16XEMPzo_-22" value="Edit Post" style="ellipse;whiteSpace=wrap;html=1;" parent="0rzklVT4OKaPTHBkq0-C-66" vertex="1">
          <mxGeometry x="300" y="303.25" width="85" height="52" as="geometry" />
        </mxCell>
        <mxCell id="X9dqfl4tY2rCqgY5y9d6-16" value="Create PDF" style="ellipse;whiteSpace=wrap;html=1;" parent="0rzklVT4OKaPTHBkq0-C-66" vertex="1">
          <mxGeometry x="300" y="203.75" width="85" height="52" as="geometry" />
        </mxCell>
        <mxCell id="21yldG7t8ybHhmPCas29-1" value="Create Class/Group" style="ellipse;whiteSpace=wrap;html=1;" parent="0rzklVT4OKaPTHBkq0-C-66" vertex="1">
          <mxGeometry x="116.25" y="565.5" width="80" height="67.5" as="geometry" />
        </mxCell>
        <mxCell id="21yldG7t8ybHhmPCas29-2" value="Manage Class/Group" style="ellipse;whiteSpace=wrap;html=1;" parent="0rzklVT4OKaPTHBkq0-C-66" vertex="1">
          <mxGeometry x="115" y="633" width="80" height="67.5" as="geometry" />
        </mxCell>
        <mxCell id="21yldG7t8ybHhmPCas29-5" value="Delete group posts" style="ellipse;whiteSpace=wrap;html=1;" parent="0rzklVT4OKaPTHBkq0-C-66" vertex="1">
          <mxGeometry x="307.5" y="620" width="85" height="52" as="geometry" />
        </mxCell>
        <mxCell id="21yldG7t8ybHhmPCas29-6" value="Set group Public/Private" style="ellipse;whiteSpace=wrap;html=1;" parent="0rzklVT4OKaPTHBkq0-C-66" vertex="1">
          <mxGeometry x="307.5" y="672" width="85" height="52" as="geometry" />
        </mxCell>
        <mxCell id="21yldG7t8ybHhmPCas29-7" value="Manage Group Members" style="ellipse;whiteSpace=wrap;html=1;" parent="0rzklVT4OKaPTHBkq0-C-66" vertex="1">
          <mxGeometry x="307.5" y="724" width="85" height="52" as="geometry" />
        </mxCell>
        <mxCell id="wJ5cB1taqt9rG_woQiyH-1" value="&amp;lt;&amp;lt;extends&amp;gt;&amp;gt;" style="endArrow=none;html=1;strokeWidth=2;startArrow=classic;startFill=1;entryX=1;entryY=0.5;entryDx=0;entryDy=0;dashed=1;dashPattern=1 1;" edge="1" parent="0rzklVT4OKaPTHBkq0-C-66" target="-kTuXStXJfN16XEMPzo_-15">
          <mxGeometry y="-20" width="50" height="50" relative="1" as="geometry">
            <mxPoint x="292" y="50" as="sourcePoint" />
            <mxPoint x="210" y="59.999999999999886" as="targetPoint" />
            <Array as="points" />
            <mxPoint as="offset" />
          </mxGeometry>
        </mxCell>
        <mxCell id="wJ5cB1taqt9rG_woQiyH-2" value="&amp;lt;&amp;lt;extends&amp;gt;&amp;gt;" style="endArrow=none;html=1;strokeWidth=2;startArrow=classic;startFill=1;dashed=1;dashPattern=1 1;entryX=1;entryY=0.5;entryDx=0;entryDy=0;" edge="1" parent="0rzklVT4OKaPTHBkq0-C-66" target="-kTuXStXJfN16XEMPzo_-21">
          <mxGeometry x="0.2032" y="-11" width="50" height="50" relative="1" as="geometry">
            <mxPoint x="320" y="310" as="sourcePoint" />
            <mxPoint x="200" y="287" as="targetPoint" />
            <Array as="points">
              <mxPoint x="280" y="271" />
            </Array>
            <mxPoint as="offset" />
          </mxGeometry>
        </mxCell>
        <mxCell id="wJ5cB1taqt9rG_woQiyH-3" value="&amp;lt;&amp;lt;extends&amp;gt;&amp;gt;" style="endArrow=none;html=1;strokeWidth=2;startArrow=classic;startFill=1;exitX=0;exitY=0.5;exitDx=0;exitDy=0;dashed=1;dashPattern=1 1;entryX=1;entryY=0;entryDx=0;entryDy=0;" edge="1" parent="0rzklVT4OKaPTHBkq0-C-66" source="X9dqfl4tY2rCqgY5y9d6-16" target="-kTuXStXJfN16XEMPzo_-21">
          <mxGeometry x="-0.212" y="-10" width="50" height="50" relative="1" as="geometry">
            <mxPoint x="312.3514873042368" y="325.4244334594382" as="sourcePoint" />
            <mxPoint x="203.2499999999991" y="281.4999999999999" as="targetPoint" />
            <Array as="points">
              <mxPoint x="210" y="230" />
            </Array>
            <mxPoint as="offset" />
          </mxGeometry>
        </mxCell>
        <mxCell id="X9dqfl4tY2rCqgY5y9d6-17" value="Select from posts" style="ellipse;whiteSpace=wrap;html=1;" parent="0rzklVT4OKaPTHBkq0-C-66" vertex="1">
          <mxGeometry x="460" y="203.75" width="85" height="52" as="geometry" />
        </mxCell>
        <mxCell id="X9dqfl4tY2rCqgY5y9d6-18" value="&amp;lt;&amp;lt;includes&amp;gt;&amp;gt;" style="endArrow=none;html=1;strokeWidth=2;startArrow=classic;startFill=1;entryX=1;entryY=0.5;entryDx=0;entryDy=0;exitX=0;exitY=0.5;exitDx=0;exitDy=0;dashed=1;dashPattern=1 1;" parent="0rzklVT4OKaPTHBkq0-C-66" source="X9dqfl4tY2rCqgY5y9d6-17" target="X9dqfl4tY2rCqgY5y9d6-16" edge="1">
          <mxGeometry y="-20" width="50" height="50" relative="1" as="geometry">
            <mxPoint x="285" y="303.75" as="sourcePoint" />
            <mxPoint x="200" y="296.25" as="targetPoint" />
            <Array as="points" />
            <mxPoint as="offset" />
          </mxGeometry>
        </mxCell>
        <mxCell id="0rzklVT4OKaPTHBkq0-C-42" value="Create New Entry" style="ellipse;whiteSpace=wrap;html=1;" parent="0rzklVT4OKaPTHBkq0-C-66" vertex="1">
          <mxGeometry x="119.25" y="295.5" width="70" height="67.5" as="geometry" />
        </mxCell>
        <mxCell id="0rzklVT4OKaPTHBkq0-C-54" value="" style="group" parent="0rzklVT4OKaPTHBkq0-C-66" vertex="1" connectable="0">
          <mxGeometry x="121.25" y="363" width="70" height="67.5" as="geometry" />
        </mxCell>
        <mxCell id="0rzklVT4OKaPTHBkq0-C-55" value="" style="ellipse;whiteSpace=wrap;html=1;" parent="0rzklVT4OKaPTHBkq0-C-54" vertex="1">
          <mxGeometry width="70" height="67.5" as="geometry" />
        </mxCell>
        <mxCell id="0rzklVT4OKaPTHBkq0-C-56" value="Join Class Group" style="text;html=1;strokeColor=none;fillColor=none;align=center;verticalAlign=middle;whiteSpace=wrap;rounded=0;" parent="0rzklVT4OKaPTHBkq0-C-54" vertex="1">
          <mxGeometry x="23.333333333333332" y="25.3125" width="23.333333333333332" height="16.875" as="geometry" />
        </mxCell>
        <mxCell id="0rzklVT4OKaPTHBkq0-C-74" value="" style="group" parent="0rzklVT4OKaPTHBkq0-C-66" vertex="1" connectable="0">
          <mxGeometry x="119.25" y="430.5" width="70" height="67.5" as="geometry" />
        </mxCell>
        <mxCell id="0rzklVT4OKaPTHBkq0-C-75" value="" style="ellipse;whiteSpace=wrap;html=1;" parent="0rzklVT4OKaPTHBkq0-C-74" vertex="1">
          <mxGeometry width="70" height="67.5" as="geometry" />
        </mxCell>
        <mxCell id="0rzklVT4OKaPTHBkq0-C-76" value="Select Group" style="text;html=1;strokeColor=none;fillColor=none;align=center;verticalAlign=middle;whiteSpace=wrap;rounded=0;" parent="0rzklVT4OKaPTHBkq0-C-74" vertex="1">
          <mxGeometry x="23.333333333333332" y="25.3125" width="23.333333333333332" height="16.875" as="geometry" />
        </mxCell>
        <mxCell id="wJ5cB1taqt9rG_woQiyH-4" value="&amp;lt;&amp;lt;extends&amp;gt;&amp;gt;" style="endArrow=none;html=1;strokeWidth=2;startArrow=classic;startFill=1;dashed=1;dashPattern=1 1;entryX=1;entryY=0;entryDx=0;entryDy=0;" edge="1" parent="0rzklVT4OKaPTHBkq0-C-66" target="21yldG7t8ybHhmPCas29-2">
          <mxGeometry x="-0.0275" y="-14" width="50" height="50" relative="1" as="geometry">
            <mxPoint x="307" y="643" as="sourcePoint" />
            <mxPoint x="210" y="639.67" as="targetPoint" />
            <Array as="points" />
            <mxPoint as="offset" />
          </mxGeometry>
        </mxCell>
        <mxCell id="wJ5cB1taqt9rG_woQiyH-9" value="&amp;lt;&amp;lt;extends&amp;gt;&amp;gt;" style="endArrow=none;html=1;strokeWidth=2;startArrow=classic;startFill=1;dashed=1;dashPattern=1 1;exitX=0;exitY=0.5;exitDx=0;exitDy=0;entryX=0.5;entryY=1;entryDx=0;entryDy=0;" edge="1" parent="0rzklVT4OKaPTHBkq0-C-66" source="21yldG7t8ybHhmPCas29-7" target="21yldG7t8ybHhmPCas29-2">
          <mxGeometry x="-0.1272" y="-21" width="50" height="50" relative="1" as="geometry">
            <mxPoint x="282.53999999999706" y="825.47" as="sourcePoint" />
            <mxPoint x="160" y="740" as="targetPoint" />
            <Array as="points">
              <mxPoint x="155" y="750" />
            </Array>
            <mxPoint as="offset" />
          </mxGeometry>
        </mxCell>
        <mxCell id="wJ5cB1taqt9rG_woQiyH-8" value="&amp;lt;&amp;lt;extends&amp;gt;&amp;gt;" style="endArrow=none;html=1;strokeWidth=2;startArrow=classic;startFill=1;dashed=1;dashPattern=1 1;entryX=1;entryY=0.5;entryDx=0;entryDy=0;" edge="1" parent="0rzklVT4OKaPTHBkq0-C-66" target="21yldG7t8ybHhmPCas29-2">
          <mxGeometry x="-0.245" y="-10" width="50" height="50" relative="1" as="geometry">
            <mxPoint x="307" y="700" as="sourcePoint" />
            <mxPoint x="184.95940099197765" y="660.5338325066853" as="targetPoint" />
            <Array as="points">
              <mxPoint x="210" y="700" />
            </Array>
            <mxPoint as="offset" />
          </mxGeometry>
        </mxCell>
        <mxCell id="0rzklVT4OKaPTHBkq0-C-2" value="Teacher" style="shape=umlActor;verticalLabelPosition=bottom;verticalAlign=top;html=1;outlineConnect=0;" parent="1" vertex="1">
          <mxGeometry x="130" y="160" width="30" height="60" as="geometry" />
        </mxCell>
        <mxCell id="X9dqfl4tY2rCqgY5y9d6-3" value="" style="endArrow=none;html=1;entryX=0;entryY=0.5;entryDx=0;entryDy=0;" parent="1" source="0rzklVT4OKaPTHBkq0-C-2" target="-kTuXStXJfN16XEMPzo_-14" edge="1">
          <mxGeometry width="50" height="50" relative="1" as="geometry">
            <mxPoint x="170" y="180" as="sourcePoint" />
            <mxPoint x="322.5" y="59.75" as="targetPoint" />
          </mxGeometry>
        </mxCell>
        <mxCell id="X9dqfl4tY2rCqgY5y9d6-2" value="" style="endArrow=none;html=1;entryX=0;entryY=0.5;entryDx=0;entryDy=0;" parent="1" target="-kTuXStXJfN16XEMPzo_-15" edge="1">
          <mxGeometry width="50" height="50" relative="1" as="geometry">
            <mxPoint x="160" y="166" as="sourcePoint" />
            <mxPoint x="300" y="100" as="targetPoint" />
          </mxGeometry>
        </mxCell>
        <mxCell id="X9dqfl4tY2rCqgY5y9d6-4" value="" style="endArrow=none;html=1;entryX=0;entryY=0.5;entryDx=0;entryDy=0;" parent="1" target="0rzklVT4OKaPTHBkq0-C-68" edge="1">
          <mxGeometry width="50" height="50" relative="1" as="geometry">
            <mxPoint x="160" y="190" as="sourcePoint" />
            <mxPoint x="322.5" y="59.75" as="targetPoint" />
          </mxGeometry>
        </mxCell>
        <mxCell id="X9dqfl4tY2rCqgY5y9d6-5" value="" style="endArrow=none;html=1;entryX=0;entryY=0.5;entryDx=0;entryDy=0;" parent="1" source="0rzklVT4OKaPTHBkq0-C-2" target="0rzklVT4OKaPTHBkq0-C-39" edge="1">
          <mxGeometry width="50" height="50" relative="1" as="geometry">
            <mxPoint x="180" y="186" as="sourcePoint" />
            <mxPoint x="332.5" y="69.75" as="targetPoint" />
          </mxGeometry>
        </mxCell>
        <mxCell id="X9dqfl4tY2rCqgY5y9d6-6" value="" style="endArrow=none;html=1;entryX=0;entryY=0.5;entryDx=0;entryDy=0;" parent="1" target="-kTuXStXJfN16XEMPzo_-2" edge="1">
          <mxGeometry width="50" height="50" relative="1" as="geometry">
            <mxPoint x="170" y="240" as="sourcePoint" />
            <mxPoint x="342.5" y="79.75" as="targetPoint" />
          </mxGeometry>
        </mxCell>
        <mxCell id="X9dqfl4tY2rCqgY5y9d6-7" value="" style="endArrow=none;html=1;entryX=0;entryY=0.5;entryDx=0;entryDy=0;" parent="1" source="0rzklVT4OKaPTHBkq0-C-2" edge="1" target="-kTuXStXJfN16XEMPzo_-21">
          <mxGeometry width="50" height="50" relative="1" as="geometry">
            <mxPoint x="200" y="206" as="sourcePoint" />
            <mxPoint x="310" y="482" as="targetPoint" />
          </mxGeometry>
        </mxCell>
        <mxCell id="X9dqfl4tY2rCqgY5y9d6-8" value="" style="endArrow=none;html=1;entryX=0;entryY=0.5;entryDx=0;entryDy=0;" parent="1" target="0rzklVT4OKaPTHBkq0-C-75" edge="1">
          <mxGeometry width="50" height="50" relative="1" as="geometry">
            <mxPoint x="160" y="210" as="sourcePoint" />
            <mxPoint x="362.5" y="99.75" as="targetPoint" />
          </mxGeometry>
        </mxCell>
        <mxCell id="X9dqfl4tY2rCqgY5y9d6-9" value="" style="endArrow=none;html=1;entryX=0;entryY=0.5;entryDx=0;entryDy=0;" parent="1" target="0rzklVT4OKaPTHBkq0-C-55" edge="1">
          <mxGeometry width="50" height="50" relative="1" as="geometry">
            <mxPoint x="160" y="200" as="sourcePoint" />
            <mxPoint x="372.5" y="109.75" as="targetPoint" />
          </mxGeometry>
        </mxCell>
        <mxCell id="X9dqfl4tY2rCqgY5y9d6-10" value="" style="endArrow=none;html=1;entryX=0;entryY=0.5;entryDx=0;entryDy=0;" parent="1" source="0rzklVT4OKaPTHBkq0-C-2" edge="1" target="0rzklVT4OKaPTHBkq0-C-42">
          <mxGeometry width="50" height="50" relative="1" as="geometry">
            <mxPoint x="230" y="236" as="sourcePoint" />
            <mxPoint x="320" y="280" as="targetPoint" />
          </mxGeometry>
        </mxCell>
        <mxCell id="21yldG7t8ybHhmPCas29-3" value="" style="endArrow=none;html=1;entryX=0;entryY=0.5;entryDx=0;entryDy=0;" parent="1" target="21yldG7t8ybHhmPCas29-1" edge="1">
          <mxGeometry width="50" height="50" relative="1" as="geometry">
            <mxPoint x="160" y="240" as="sourcePoint" />
            <mxPoint x="316.5" y="549.25" as="targetPoint" />
          </mxGeometry>
        </mxCell>
        <mxCell id="21yldG7t8ybHhmPCas29-4" value="" style="endArrow=none;html=1;entryX=0;entryY=0.5;entryDx=0;entryDy=0;" parent="1" target="21yldG7t8ybHhmPCas29-2" edge="1">
          <mxGeometry width="50" height="50" relative="1" as="geometry">
            <mxPoint x="140" y="240" as="sourcePoint" />
            <mxPoint x="316.5" y="616.75" as="targetPoint" />
          </mxGeometry>
        </mxCell>
      </root>
    </mxGraphModel>
  </diagram>
</mxfile>
